<?xml version="1.0" encoding="UTF-8" standalone="no"?>
<!-- Created with Inkscape (http://www.inkscape.org/) -->

<svg
   width="92"
   height="52"
   viewBox="0 0 24.341666 13.758334"
   version="1.1"
   id="svg5"
   inkscape:version="1.2-dev (12f35739, 2021-09-19)"
   sodipodi:docname="logo.svg"
   inkscape:export-filename="C:\my_xoops\www\modules\leebuyer_signup\images\logo.png"
   inkscape:export-xdpi="96"
   inkscape:export-ydpi="96"
   xmlns:inkscape="http://www.inkscape.org/namespaces/inkscape"
   xmlns:sodipodi="http://sodipodi.sourceforge.net/DTD/sodipodi-0.dtd"
   xmlns:xlink="http://www.w3.org/1999/xlink"
   xmlns="http://www.w3.org/2000/svg"
   xmlns:svg="http://www.w3.org/2000/svg">
  <sodipodi:namedview
     id="namedview7"
     pagecolor="#ffffff"
     bordercolor="#111111"
     borderopacity="1"
     inkscape:pageshadow="0"
     inkscape:pageopacity="0"
     inkscape:pagecheckerboard="false"
     inkscape:blackoutopacity="0.0"
     inkscape:document-units="mm"
     showgrid="false"
     units="px"
     inkscape:zoom="5.8511223"
     inkscape:cx="37.685078"
     inkscape:cy="34.523291"
     inkscape:window-width="1920"
     inkscape:window-height="1001"
     inkscape:window-x="-9"
     inkscape:window-y="-9"
     inkscape:window-maximized="1"
     inkscape:current-layer="layer1" />
  <defs
     id="defs2">
    <linearGradient
       inkscape:collect="always"
       id="linearGradient22684">
      <stop
         style="stop-color:#000000;stop-opacity:1;"
         offset="0"
         id="stop22680" />
      <stop
         style="stop-color:#000000;stop-opacity:0;"
         offset="1"
         id="stop22682" />
    </linearGradient>
    <linearGradient
       inkscape:collect="always"
       xlink:href="#linearGradient22684"
       id="linearGradient22686"
       x1="12.589853"
       y1="6.8221844"
       x2="23.277225"
       y2="6.8221844"
       gradientUnits="userSpaceOnUse" />
  </defs>
  <g
     inkscape:label="圖層 1"
     inkscape:groupmode="layer"
     id="layer1">
    <rect
       style="fill:#ffcc00;fill-opacity:1;fill-rule:evenodd;stroke-width:0.264583"
       id="rect953"
       width="24.396799"
       height="13.973002"
       x="-0.067828864"
       y="-0.12241332"
       ry="0.70344639" />
    <g
       id="g425"
       transform="matrix(0.02203139,0,0,0.02350856,1.6850591,0.91622331)"
       inkscape:transform-center-x="25.709629"
       inkscape:transform-center-y="77.788163">
      <path
         style="fill:#f2f2f2;stroke-width:1.12284"
         d="M 410.96652,0.469 H 94.128371 L -21.769962,96.383857 V 496.89733 c 0,11.95106 11.725604,21.55276 26.0431826,21.55276 H 410.96652 c 14.44101,0 26.04318,-9.70385 26.04318,-21.55276 V 22.123899 C 437.13313,10.172846 425.40753,0.469 410.96652,0.469 Z"
         id="path321" />
      <g
         id="g329">
	<rect
   x="55.799999"
   y="167.569"
   style="fill:#cdd5df"
   width="260.10001"
   height="26.299999"
   id="rect323" />

	<rect
   x="55.799999"
   y="247.069"
   style="fill:#cdd5df"
   width="260.10001"
   height="26.299999"
   id="rect325" />

	<rect
   x="55.799999"
   y="326.569"
   style="fill:#cdd5df"
   width="214.8"
   height="26.299999"
   id="rect327" />

</g>
      <path
         style="fill:#65c5b8"
         d="M 93.9,73.269 V 0.469 L 0,94.369 h 72.7 c 11.7,0 21.2,-9.5 21.2,-21.1 z"
         id="path331" />
      <path
         style="fill:#89d6f7"
         d="m 501.2,116.969 -70.8,-70.9 c -9,-9 -23.6,-9 -32.6,0 l -43.3,43.3 103.5,103.5 43.3,-43.3 c 9,-9 9,-23.6 -0.1,-32.6 z"
         id="path333" />
      <polygon
         style="fill:#d8ab53"
         points="138.9,367.969 139.2,367.569 139.3,367.569 "
         id="polygon335" />
      <path
         style="fill:#ffd05c"
         d="m 212.1,438.669 -83.6,18.9 -50,11.3 11.3,-50 18.9,-83.6 v 0 c 7.4,1 14.6,4.4 20.3,10.1 6.2,6.2 9.7,14.2 10.3,22.3 10.8,-1.7 22.3,1.6 30.6,9.9 4.2,4.2 7.1,9.1 8.7,14.4 1.7,5.3 2.1,10.9 1.2,16.3 8.1,0.6 16.1,4 22.3,10.3 5.6,5.5 9,12.7 10,20.1 z"
         id="path337" />
      <path
         style="fill:#f2705b"
         d="m 349.1,157.769 -209.9,209.9 h -0.1 c -0.6,-8.1 -4.1,-16.1 -10.3,-22.3 -5.7,-5.7 -12.9,-9.1 -20.3,-10.1 l 0.1,-0.1 208.9,-208.9 z"
         id="path339" />
      <path
         style="fill:#f05540"
         d="m 179.7,408.069 c 1.7,-10.8 -1.6,-22.2 -9.9,-30.5 -6.9,-6.9 -16,-10.4 -25,-10.4 -1.9,0 -3.7,0.2 -5.5,0.5 l 209.9,-209.9 40.4,40.5 z"
         id="path341" />
      <path
         style="fill:#f2705b"
         d="m 421.1,229.669 -208.9,208.9 h -0.1 c -1,-7.4 -4.4,-14.5 -10.1,-20.2 -6.3,-6.3 -14.2,-9.7 -22.3,-10.3 v 0 l 209.8,-209.8 z"
         id="path343" />
      <polygon
         style="fill:#334a5e"
         points="89.7,418.869 128.5,457.569 78.5,468.869 "
         id="polygon345" />
      <g
         id="g355">
	
		<rect
   x="361.724"
   y="86.338997"
   transform="matrix(-0.7071,0.7071,-0.7071,-0.7071,774.8676,-1.8851)"
   style="fill:#55bfe9"
   width="52.200001"
   height="146.399"
   id="rect347" />

	<polygon
   style="fill:#55bfe9"
   points="317.6,126.269 317.6,126.169 354.5,89.369 "
   id="polygon349" />

	<polygon
   style="fill:#55bfe9"
   points="354.5,89.369 386,120.769 386,120.869 "
   id="polygon351" />

	<polygon
   style="fill:#55bfe9"
   points="386,120.869 426.4,161.269 "
   id="polygon353" />

</g>
      <g
         id="g357">
</g>
      <g
         id="g359">
</g>
      <g
         id="g361">
</g>
      <g
         id="g363">
</g>
      <g
         id="g365">
</g>
      <g
         id="g367">
</g>
      <g
         id="g369">
</g>
      <g
         id="g371">
</g>
      <g
         id="g373">
</g>
      <g
         id="g375">
</g>
      <g
         id="g377">
</g>
      <g
         id="g379">
</g>
      <g
         id="g381">
</g>
      <g
         id="g383">
</g>
      <g
         id="g385">
</g>
    </g>
    <text
       xml:space="preserve"
       style="font-style:normal;font-variant:normal;font-weight:bold;font-stretch:normal;font-size:5.27585px;line-height:1.25;font-family:'Microsoft YaHei';-inkscape-font-specification:'Microsoft YaHei, Bold';font-variant-ligatures:normal;font-variant-caps:normal;font-variant-numeric:normal;font-variant-east-asian:normal;fill:#c6fdcf;fill-opacity:1;stroke:#b80000;stroke-width:0.21934;stroke-miterlimit:4;stroke-dasharray:none;stroke-opacity:1;paint-order:stroke fill markers"
       x="12.697916"
       y="5.5898242"
       id="text13501"
       transform="scale(1.0096917,0.99040134)"><tspan
         sodipodi:role="line"
         id="tspan13499"
         style="font-style:normal;font-variant:normal;font-weight:bold;font-stretch:normal;font-size:5.27585px;font-family:'Microsoft YaHei';-inkscape-font-specification:'Microsoft YaHei, Bold';font-variant-ligatures:normal;font-variant-caps:normal;font-variant-numeric:normal;font-variant-east-asian:normal;fill:#c6fdcf;fill-opacity:1;stroke:#b80000;stroke-width:0.21934;stroke-miterlimit:4;stroke-dasharray:none;stroke-opacity:1;paint-order:stroke fill markers"
         x="12.697916"
         y="5.5898242">活動</tspan><tspan
         sodipodi:role="line"
         style="font-style:normal;font-variant:normal;font-weight:bold;font-stretch:normal;font-size:5.27585px;font-family:'Microsoft YaHei';-inkscape-font-specification:'Microsoft YaHei, Bold';font-variant-ligatures:normal;font-variant-caps:normal;font-variant-numeric:normal;font-variant-east-asian:normal;fill:#c6fdcf;fill-opacity:1;stroke:#b80000;stroke-width:0.21934;stroke-miterlimit:4;stroke-dasharray:none;stroke-opacity:1;paint-order:stroke fill markers"
         x="12.697916"
         y="12.184636"
         id="tspan15479">報名</tspan></text>
  </g>
</svg>
